<?xml version="1.0" standalone="no"?>
<!DOCTYPE svg PUBLIC "-//W3C//DTD SVG 20010904//EN"
 "http://www.w3.org/TR/2001/REC-SVG-20010904/DTD/svg10.dtd">
<svg version="1.0" xmlns="http://www.w3.org/2000/svg"
 width="1024.000000pt" height="1024.000000pt" viewBox="0 0 1024.000000 1024.000000"
 preserveAspectRatio="xMidYMid meet">

<g transform="translate(0.000000,1024.000000) scale(0.100000,-0.100000)"
fill="#000000" stroke="none">
<path d="M4895 7904 c-690 -69 -1236 -284 -1825 -718 -164 -120 -319 -255
-512 -445 -271 -266 -457 -485 -665 -784 l-96 -139 22 -46 c71 -147 332 -495
559 -746 469 -519 1117 -960 1706 -1162 485 -166 938 -217 1426 -160 585 70
1149 307 1710 719 433 318 891 815 1169 1269 84 137 89 105 -44 293 -204 288
-404 523 -657 771 -245 240 -411 375 -691 558 -492 324 -943 498 -1472 571
-114 16 -535 28 -630 19z m170 -286 c-3 -18 -21 -170 -40 -338 -50 -437 -44
-399 -68 -404 -12 -3 -55 -10 -96 -16 -223 -36 -435 -151 -599 -325 -145 -153
-234 -327 -276 -536 l-21 -106 -290 -37 c-159 -21 -293 -40 -297 -42 -13 -8
-9 -44 5 -49 6 -3 140 -17 296 -32 l285 -28 22 -110 c12 -61 29 -132 39 -160
31 -92 102 -229 161 -314 l59 -84 -97 -164 c-54 -90 -98 -170 -98 -178 0 -40
37 -24 197 84 l165 113 37 -25 c107 -71 271 -135 429 -166 l87 -18 7 -59 c4
-32 21 -189 38 -349 17 -159 33 -296 35 -302 13 -39 -331 11 -541 78 -576 183
-1052 679 -1208 1260 -54 201 -61 259 -61 504 0 259 15 361 80 563 46 140 158
363 242 482 137 191 411 438 605 543 253 138 612 242 846 246 l63 1 -6 -32z
m352 17 c361 -47 702 -193 938 -400 410 -360 619 -761 666 -1277 30 -321 -45
-689 -202 -998 -94 -184 -180 -301 -334 -455 -273 -273 -578 -438 -945 -514
-154 -32 -390 -53 -390 -35 0 10 128 1181 145 1324 8 69 15 130 15 137 0 6 19
22 43 36 42 25 107 89 137 136 14 21 30 26 159 43 145 19 682 81 1021 119 102
11 191 22 198 24 7 3 12 15 10 27 -3 21 -14 23 -260 54 -245 30 -969 134 -977
140 -2 2 21 41 52 87 94 143 235 363 379 591 120 191 136 222 124 234 -15 15
-3 23 -664 -435 -105 -74 -196 -132 -201 -129 -4 3 -11 36 -14 73 -11 128 -77
748 -105 991 l-28 242 57 0 c32 0 111 -7 176 -15z m1245 -373 c216 -131 389
-253 608 -430 130 -105 472 -448 601 -602 125 -149 319 -402 319 -416 0 -17
-174 -269 -258 -374 -115 -143 -334 -381 -468 -509 -277 -263 -638 -523 -928
-667 l-91 -46 55 48 c441 380 700 944 700 1524 0 566 -192 1047 -584 1458 -50
53 -86 93 -81 90 6 -3 63 -38 127 -76z m-3040 -40 c-362 -393 -548 -826 -569
-1327 -14 -334 55 -663 202 -972 111 -232 246 -417 433 -593 l106 -100 -109
58 c-597 316 -1181 855 -1561 1438 l-55 84 77 103 c378 499 767 881 1189 1170
117 80 361 234 374 236 2 1 -38 -43 -87 -97z m1565 -575 c40 -421 42 -400 -31
-417 l-37 -8 6 421 c6 380 13 518 22 417 2 -19 20 -205 40 -413z m-227 49 c0
-8 -13 -134 -30 -280 l-30 -266 -58 -58 c-59 -57 -88 -103 -111 -173 l-12 -36
-177 -7 c-97 -3 -230 -9 -296 -13 l-118 -6 7 54 c50 370 326 681 685 772 120
31 140 32 140 13z m267 -699 c161 -84 163 -316 3 -400 -49 -26 -62 -28 -119
-24 -207 16 -281 269 -117 398 63 50 165 61 233 26z m818 -173 c93 -4 181 -10
195 -14 23 -6 -45 -10 -507 -27 l-183 -6 0 35 c0 19 2 37 4 39 3 2 76 -1 163
-7 87 -7 234 -16 328 -20z m-1345 -113 c0 -10 -77 -126 -171 -257 -94 -132
-175 -246 -179 -254 -8 -13 -11 -12 -24 5 -39 53 -106 178 -134 250 -26 69
-62 220 -62 261 0 12 48 14 285 14 273 0 285 -1 285 -19z m397 -408 c-4 -38
-7 -227 -7 -422 0 -195 -2 -352 -5 -350 -6 7 -31 251 -50 494 -8 110 -17 221
-20 247 -5 45 -4 48 32 72 21 15 42 26 47 26 5 0 6 -29 3 -67z m-171 -254 l20
-191 -41 6 c-73 12 -179 47 -262 88 -46 22 -83 43 -83 47 0 3 63 48 139 99 76
52 151 104 167 117 16 14 32 24 35 25 3 0 14 -86 25 -191z"/>
<path d="M5086 5885 c-42 -22 -55 -44 -56 -91 0 -53 29 -91 76 -100 99 -18
164 92 97 166 -34 37 -78 46 -117 25z"/>
<path d="M6970 3271 c-194 -64 -272 -270 -153 -402 48 -53 84 -70 227 -109
145 -41 176 -62 176 -125 0 -36 -5 -48 -30 -69 -37 -30 -102 -42 -157 -27 -45
12 -98 65 -109 106 -6 24 -9 25 -90 25 -96 0 -96 0 -67 -90 22 -68 87 -141
155 -171 45 -20 69 -24 158 -24 88 0 113 4 155 23 172 79 229 282 112 402 -40
42 -105 71 -230 106 -126 35 -161 57 -165 106 -2 29 3 43 27 70 27 30 34 33
89 33 71 0 107 -21 135 -78 l19 -37 84 0 c94 0 92 -2 69 76 -20 67 -73 127
-143 160 -46 22 -74 28 -147 30 -49 2 -101 0 -115 -5z"/>
<path d="M1900 2830 l0 -440 90 0 90 0 0 281 0 281 88 -124 c48 -69 137 -195
197 -281 l110 -156 83 -1 82 0 0 440 0 440 -85 0 -85 0 -2 -281 -3 -281 -195
281 -195 280 -87 1 -88 0 0 -440z"/>
<path d="M2920 2830 l0 -440 90 0 90 0 0 440 0 440 -90 0 -90 0 0 -440z"/>
<path d="M3368 2830 l2 -440 91 0 90 0 -3 150 -3 151 59 -3 59 -3 91 -147 91
-148 102 0 c57 0 103 2 103 5 0 3 -43 73 -95 156 -52 82 -95 153 -95 157 0 4
16 16 36 27 50 27 112 100 126 149 28 99 3 224 -60 289 -77 81 -142 97 -397
97 l-200 0 3 -440z m410 255 c91 -37 98 -155 13 -212 -30 -20 -46 -23 -137
-23 l-104 0 -1 105 c-1 58 -2 111 -3 118 -1 6 -1 15 1 20 8 14 191 8 231 -8z"/>
<path d="M4260 2830 l0 -440 90 0 90 0 0 144 0 144 123 4 c107 4 130 8 184 32
121 55 179 150 171 278 -6 90 -30 141 -94 197 -77 68 -138 81 -370 81 l-194 0
0 -440z m381 260 c19 -5 48 -23 64 -40 52 -54 34 -152 -36 -187 -14 -8 -65
-13 -126 -13 l-103 0 0 125 0 125 83 0 c45 0 98 -5 118 -10z"/>
<path d="M5120 2830 l0 -440 285 0 285 0 0 88 0 87 -192 0 -193 0 0 95 0 95
168 2 c92 1 167 5 167 8 0 3 0 39 0 80 l0 75 -170 0 -170 0 0 90 0 90 188 0
187 0 -3 85 -3 85 -275 0 -274 0 0 -440z"/>
<path d="M5930 2830 l0 -440 90 0 90 0 0 143 0 143 38 37 39 38 130 -178 130
-178 111 -3 c62 -1 112 -1 112 2 0 3 -78 114 -174 247 l-174 243 25 31 c55 64
269 321 282 338 13 16 7 17 -95 17 l-109 0 -155 -185 -155 -186 -3 186 -2 185
-90 0 -90 0 0 -440z"/>
<path d="M7610 2830 l0 -440 90 0 90 0 0 180 0 180 180 0 180 0 0 -180 0 -180
90 0 90 0 0 440 0 440 -90 0 -90 0 0 -170 0 -170 -180 0 -180 0 0 170 0 170
-90 0 -90 0 0 -440z"/>
</g>
</svg>
