<?xml version="1.0" encoding="UTF-8"?>
<svg version="1.1" xmlns="http://www.w3.org/2000/svg" width="1024" height="1024">
<path d="M0 0 C337.92 0 675.84 0 1024 0 C1024 337.92 1024 675.84 1024 1024 C686.08 1024 348.16 1024 0 1024 C0 686.08 0 348.16 0 0 Z " fill="#FEFEFE" transform="translate(0,0)"/>
<path d="M0 0 C0.98154053 0.81114258 1.96308105 1.62228516 2.97436523 2.45800781 C12.20143644 10.16030734 20.7383967 18.46105994 29.19799805 26.9921875 C31.45365692 29.26628902 33.71740277 31.53209974 35.98242188 33.796875 C37.44578753 35.26515171 38.90869478 36.73388547 40.37109375 38.203125 C41.03475449 38.86789856 41.69841522 39.53267212 42.38218689 40.21759033 C46.777709 44.65727505 50.93056562 49.26088851 55 54 C55.97329277 55.11776739 56.94713895 56.23505348 57.921875 57.3515625 C69.74760219 71.00218395 80.56521739 85.26260449 91 100 C91.80727539 101.13695312 91.80727539 101.13695312 92.63085938 102.296875 C94.17878532 104.48395673 95.71647942 106.67780015 97.25 108.875 C97.71599609 109.53483887 98.18199219 110.19467773 98.66210938 110.87451172 C102.59896807 116.56985382 102.59896807 116.56985382 103 120 C102.20239258 122.02026367 102.20239258 122.02026367 100.89453125 124.16796875 C100.41193848 124.96992676 99.9293457 125.77188477 99.43212891 126.59814453 C98.89765137 127.45263184 98.36317383 128.30711914 97.8125 129.1875 C97.26513184 130.07808105 96.71776367 130.96866211 96.15380859 131.88623047 C81.60597001 155.29362358 64.3218812 177.00619268 45.58984375 197.19140625 C43.3332953 199.63855306 41.1319909 202.12251038 38.9375 204.625 C34.43501581 209.64135467 29.69524093 214.41383075 24.9375 219.1875 C24.18138428 219.94820801 23.42526855 220.70891602 22.64624023 221.49267578 C17.92505635 226.2010178 13.05590305 230.65588497 8 235 C6.83165303 236.03325937 5.6649421 237.06837209 4.5 238.10546875 C-18.07112784 258.06076924 -43.63135463 275.43385203 -70 290 C-70.60166992 290.33854004 -71.20333984 290.67708008 -71.82324219 291.02587891 C-97.30909503 305.33695572 -124.81999141 315.45769637 -153 323 C-153.96752197 323.25998779 -154.93504395 323.51997559 -155.93188477 323.7878418 C-167.46657054 326.78744328 -179.20494193 328.38603391 -191 330 C-191.89364258 330.12294434 -192.78728516 330.24588867 -193.70800781 330.37255859 C-253.297151 338.19845902 -315.21541503 325.95711691 -369 300 C-370.04172363 299.50185791 -370.04172363 299.50185791 -371.10449219 298.99365234 C-375.78154167 296.74674683 -380.39871966 294.39764137 -385 292 C-385.64453125 291.6704834 -386.2890625 291.3409668 -386.953125 291.00146484 C-415.22012888 276.45759055 -442.25926378 257.04292528 -466 236 C-467.31232844 234.87479988 -468.62480203 233.74976899 -469.9375 232.625 C-483.99295103 220.24781178 -497.8939994 207.31164875 -510 193 C-510.97097956 191.89045754 -511.94382836 190.78254964 -512.91796875 189.67578125 C-520.24384026 181.33540677 -527.28471384 172.83928334 -534 164 C-534.81404297 162.93289795 -534.81404297 162.93289795 -535.64453125 161.84423828 C-563.13524982 125.65795099 -563.13524982 125.65795099 -562.953125 118.0390625 C-561.51087808 114.95359983 -559.66629881 112.1786381 -557.75 109.375 C-557.30817383 108.72257324 -556.86634766 108.07014648 -556.41113281 107.39794922 C-547.05930627 93.68085832 -537.20979562 80.53630331 -526.52490234 67.82910156 C-524.49728473 65.39699923 -522.53372556 62.9154008 -520.5625 60.4375 C-510.55173131 48.26224079 -499.28502834 37.17628051 -488.18322754 26.00799561 C-486.91014133 24.72683052 -485.63853568 23.44419226 -484.36853027 22.15997314 C-477.61602222 15.33996229 -470.85715345 8.78431715 -463.30810547 2.84057617 C-461.0740838 1.0590774 -458.96990702 -0.80808271 -456.875 -2.75 C-384.04546001 -68.06332412 -281.8999666 -103.12612865 0 0 Z " fill="#344852" transform="translate(743,324)"/>
<path d="M0 0 C17.26445916 -0.2281294 17.26445916 -0.2281294 25.6875 1.1875 C26.92995483 1.3882312 26.92995483 1.3882312 28.19750977 1.59301758 C60.04758105 6.96268772 89.93802404 18.22257143 115 39 C115.86109375 39.71285156 116.7221875 40.42570312 117.609375 41.16015625 C120.14832195 43.37108488 122.57648139 45.66266627 125 48 C125.92981689 48.88316895 125.92981689 48.88316895 126.87841797 49.78417969 C151.30423399 73.07244893 169.78663398 101.46215056 178.6875 134.25 C178.87787842 134.93876221 179.06825684 135.62752441 179.2644043 136.3371582 C183.29517899 152.02254966 184.55320816 167.6703863 184.4375 183.8125 C184.43412628 184.73165192 184.43075256 185.65080383 184.42727661 186.59780884 C184.35390683 200.42118564 183.70080125 213.61049583 180 227 C179.75330566 227.93215332 179.50661133 228.86430664 179.25244141 229.82470703 C175.68583577 243.09931108 171.07200231 255.67351155 165 268 C164.67918457 268.65935547 164.35836914 269.31871094 164.02783203 269.99804688 C143.26185452 312.22606819 103.4817581 345.15528118 59.1875 360.25 C39.09801405 366.74614753 18.1680223 370.6921497 -3 370 C-2.3298242 357.71899874 -1.04774744 345.5334258 0.3125 333.3125 C0.53867577 331.25922506 0.76458322 329.20592055 0.99023438 327.15258789 C1.55298464 322.03917212 2.11948093 316.92618062 2.68756104 311.81335449 C3.05858834 308.47244169 3.42809643 305.13136221 3.79748535 301.79026794 C4.59463688 294.58146736 5.39745885 287.37331158 6.20251465 280.16539001 C6.79972676 274.81183575 7.39109234 269.45765139 7.98043823 264.10322571 C8.43638075 259.96163653 8.89357449 255.82018584 9.35083008 251.67874146 C9.57341248 249.65982307 9.79542745 247.64084204 10.0168457 245.62179565 C10.32611899 242.80238161 10.63745596 239.9832022 10.94921875 237.1640625 C11.04071701 236.32509933 11.13221527 235.48613617 11.22648621 234.62174988 C12.58683008 222.3750448 12.58683008 222.3750448 14.8203125 220.34765625 C15.96113281 219.71150391 15.96113281 219.71150391 17.125 219.0625 C22.5431134 215.7667686 27.57859691 212.04586375 30.3125 206.1875 C33.98926981 201.42131692 42.94017247 201.84048887 48.59082031 201.10205078 C51.08608759 200.79569643 53.5818903 200.49368154 56.078125 200.1953125 C57.4406199 200.02989526 58.80308152 199.86420372 60.16551208 199.69825745 C63.78119981 199.25908605 67.39750502 198.82522396 71.01400375 198.39278793 C73.25855946 198.1239749 75.50291844 197.85357427 77.7472229 197.58267212 C96.52843106 195.31653927 115.31490997 193.14500666 134.13623047 191.23583984 C145.78978137 190.05116284 157.3990921 188.61873133 169 187 C169 185.68 169 184.36 169 183 C167.68999023 182.84031738 166.37998047 182.68063477 165.03027344 182.51611328 C135.48258527 178.89882236 106.00790516 174.92877139 76.5625 170.5625 C75.41342415 170.39212093 75.41342415 170.39212093 74.24113464 170.21829987 C64.82603817 168.82141889 55.41234065 167.41533537 46 166 C47.37512464 162.45638308 48.88095109 159.42538499 50.984375 156.25390625 C51.58282227 155.34527832 52.18126953 154.43665039 52.79785156 153.50048828 C53.76416504 152.04618408 53.76416504 152.04618408 54.75 150.5625 C56.11564257 148.48897849 57.48019969 146.41474173 58.84375 144.33984375 C59.53726563 143.28522949 60.23078125 142.23061523 60.9453125 141.14404297 C64.09021656 136.33177176 67.17314207 131.48096137 70.25 126.625 C74.30500817 120.23121352 78.37783086 113.85069781 82.5 107.5 C83.36989044 106.15370965 84.23968004 104.80735414 85.109375 103.4609375 C86.68146365 101.0287975 88.26104508 98.60209232 89.84960938 96.18066406 C91.82555816 93.1679761 93.78834493 90.14700916 95.75 87.125 C96.38357422 86.16658203 97.01714844 85.20816406 97.66992188 84.22070312 C98.53713867 82.87782227 98.53713867 82.87782227 99.421875 81.5078125 C99.94362305 80.71004395 100.46537109 79.91227539 101.00292969 79.09033203 C102.34896683 76.890483 102.34896683 76.890483 101 74 C97.60763799 75.2526782 94.78378804 76.67107535 91.83984375 78.765625 C91.05665771 79.31871338 90.27347168 79.87180176 89.46655273 80.44165039 C88.63196533 81.03840576 87.79737793 81.63516113 86.9375 82.25 C85.1354857 83.52483717 83.33340039 84.79957397 81.53125 86.07421875 C80.61214844 86.72696777 79.69304687 87.3797168 78.74609375 88.05224609 C74.48819976 91.07229217 70.21389312 94.06872987 65.9375 97.0625 C65.11403076 97.63943604 64.29056152 98.21637207 63.44213867 98.81079102 C55.43042995 104.41529943 47.36000784 109.932537 39.28271484 115.44189453 C35.53881457 117.99735673 31.79975731 120.55983549 28.0625 123.125 C27.40604492 123.57447998 26.74958984 124.02395996 26.07324219 124.48706055 C23.56521644 126.20926028 21.08414859 127.93444073 18.68359375 129.8046875 C17 131 17 131 15 131 C12.96514754 119.44841051 11.87346974 107.79709757 10.68389893 96.13546753 C8.32550866 73.05017933 5.78858413 49.98926423 3.125 26.9375 C3.00694693 25.91524826 3.00694693 25.91524826 2.88650894 24.87234497 C1.92883299 16.5810402 0.96695647 8.29022777 0 0 Z " fill="#FDFEFE" transform="translate(518,259)"/>
<path d="M0 0 C1.85431641 0.0165564 1.85431641 0.0165564 3.74609375 0.03344727 C5.35677734 0.04782837 5.35677734 0.04782837 7 0.0625 C5.70950045 14.30243248 4.17334551 28.4953913 2.4375 42.6875 C1.99668271 46.3044459 1.55814612 49.92165987 1.12109375 53.5390625 C1.0176767 54.38704407 0.91425964 55.23502563 0.80770874 56.10870361 C0.17160999 61.39221906 -0.35164399 66.6683107 -0.67163086 71.98193359 C-1.05390125 74.40402153 -1.62096818 76.0292833 -3 78.0625 C-5.87199988 78.6868478 -8.52954109 79.07917801 -11.4375 79.375 C-33.93080569 82.33526554 -53.4919887 92.78235731 -70 108.0625 C-70.77085937 108.76375 -71.54171875 109.465 -72.3359375 110.1875 C-77.35723939 114.95869873 -81.27122234 120.24052215 -85 126.0625 C-85.5878125 126.97902344 -86.175625 127.89554687 -86.78125 128.83984375 C-95.80500739 143.58260528 -100.22728425 159.12244872 -103 176.0625 C-122.64508067 178.91611732 -142.28639929 181.71696416 -162 184.0625 C-162 185.3825 -162 186.7025 -162 188.0625 C-142.53 190.0425 -123.06 192.0225 -103 194.0625 C-101.35 201.9825 -99.7 209.9025 -98 218.0625 C-92.18842482 234.43177008 -84.59247033 247.7465566 -75 262.0625 C-77.06104928 265.5141829 -79.12411076 268.96465428 -81.18896484 272.4140625 C-81.88970111 273.5852885 -82.58990689 274.75683207 -83.28955078 275.92871094 C-84.30097842 277.62259973 -85.3145355 279.31521644 -86.328125 281.0078125 C-86.9355957 282.02375488 -87.54306641 283.03969727 -88.16894531 284.08642578 C-89.44958504 286.16789222 -90.81116268 288.20072148 -92.22949219 290.19091797 C-94.34988269 293.06771941 -94.34988269 293.06771941 -94 297.0625 C-90.0876402 296.50513098 -87.64969286 295.41444143 -84.453125 293.11328125 C-83.6075 292.51193359 -82.761875 291.91058594 -81.890625 291.29101562 C-81.01921875 290.65873047 -80.1478125 290.02644531 -79.25 289.375 C-76.67625295 287.53190253 -74.10069169 285.69176814 -71.51757812 283.86181641 C-69.83891876 282.66207635 -68.17587976 281.44017521 -66.52929688 280.19677734 C-65.75134766 279.63039551 -64.97339844 279.06401367 -64.171875 278.48046875 C-63.14465332 277.70932739 -63.14465332 277.70932739 -62.09667969 276.92260742 C-60 276.0625 -60 276.0625 -57.4375 276.80297852 C-54.96246822 278.08189368 -52.51794388 279.40668619 -50.09301758 280.77832031 C-35.15154793 289.16248582 -19.78880792 293.11100326 -3 296.0625 C-0.17022787 320.37943251 2.47836931 344.71173676 5 369.0625 C-4.0713313 369.24290893 -12.6694804 369.04120937 -21.625 367.4375 C-22.64207031 367.26001221 -23.65914062 367.08252441 -24.70703125 366.8996582 C-40.93207117 363.93052629 -56.14214711 359.19395208 -71 352.0625 C-72.17820312 351.51851562 -73.35640625 350.97453125 -74.5703125 350.4140625 C-83.62845868 346.09776465 -91.8420222 340.87885656 -100 335.0625 C-100.83313721 334.46912842 -100.83313721 334.46912842 -101.68310547 333.86376953 C-115.01003934 324.25188361 -127.01285223 313.1240496 -137 300.0625 C-137.7734375 299.12792969 -138.546875 298.19335938 -139.34375 297.23046875 C-156.79221852 275.7235748 -167.47762328 250.43616324 -173.42138672 223.58740234 C-173.92121962 221.40627496 -174.49496825 219.26732253 -175.09765625 217.11328125 C-177.68326297 206.7066401 -177.21493084 195.5697586 -177.24023438 184.91064453 C-177.24990241 182.46221429 -177.28101779 180.01463964 -177.3125 177.56640625 C-177.41236583 162.75883307 -175.33316433 148.52756359 -171.375 134.25 C-171.12411621 133.34185547 -170.87323242 132.43371094 -170.61474609 131.49804688 C-159.96093032 94.63266406 -136.19315209 62.42109903 -106 39.0625 C-105.07960938 38.32515625 -104.15921875 37.5878125 -103.2109375 36.828125 C-75.46500214 15.13992755 -35.36158764 -0.31572846 0 0 Z " fill="#6CA1B2" transform="translate(500,258.9375)"/>
<path d="M0 0 C23.19350356 8.4259382 45.02739181 26.64218358 64 42 C64.99773437 42.79664063 65.99546875 43.59328125 67.0234375 44.4140625 C79.67991053 54.62089559 91.69958882 65.37768328 103.13720703 76.93139648 C105.02181772 78.83453218 106.91457847 80.72927461 108.80859375 82.62304688 C114.74993234 88.58186284 120.55511494 94.57867355 126 101 C127.4132355 102.5448126 128.82940409 104.08695325 130.25 105.625 C135.26380027 111.18837366 139.84800761 117.04278132 144.42431641 122.96533203 C146.15477941 125.19986545 147.89506801 127.4265205 149.63671875 129.65234375 C150.88293826 131.24729758 152.12903348 132.84234853 153.375 134.4375 C153.95789795 135.18257812 154.5407959 135.92765625 155.14135742 136.6953125 C156.24992384 138.1186728 157.35248521 139.54673565 158.44824219 140.97998047 C159.4668302 142.30593976 160.50356983 143.61818951 161.55957031 144.91455078 C164.99474469 149.2978901 164.99474469 149.2978901 165.01953125 152.609375 C163.82556005 155.40903161 162.4183035 157.74158913 160.6875 160.25 C159.96820312 161.29542969 159.24890625 162.34085938 158.5078125 163.41796875 C158.10852539 163.98821777 157.70923828 164.5584668 157.29785156 165.14599609 C155.89519165 167.14972059 154.50641997 169.16272732 153.1171875 171.17578125 C145.40602419 182.28717194 137.22346138 192.66600018 128.109375 202.67578125 C126.25373343 204.72042335 124.43243624 206.78784149 122.625 208.875 C121.41865659 210.25174617 120.21017823 211.62662347 119 213 C118.31679688 213.77730469 117.63359375 214.55460938 116.9296875 215.35546875 C110.82901041 222.15252538 104.4554108 228.676873 98.02026367 235.15597534 C97.02267936 236.16094902 96.02669191 237.16751086 95.0324707 238.17581177 C88.3723815 244.92130476 81.41520178 251.08267497 74 257 C72.91014641 257.92334818 71.82551674 258.85296 70.75 259.79296875 C48.29931975 279.34164346 23.12777351 294.89364661 -3 309 C-3.65516602 309.3619043 -4.31033203 309.72380859 -4.98535156 310.09667969 C-6.6015625 310.9609375 -6.6015625 310.9609375 -9 312 C-9.66 311.67 -10.32 311.34 -11 311 C-10.38253906 310.5153125 -9.76507812 310.030625 -9.12890625 309.53125 C1.38698045 301.69170172 1.38698045 301.69170172 10 292 C10.66 292 11.32 292 12 292 C12.25910156 291.41863281 12.51820313 290.83726562 12.78515625 290.23828125 C14.09286036 287.82891002 15.55259526 286.17429148 17.4375 284.1875 C40.64623474 258.41866975 55.32438346 224.82461225 62 191 C62.15098145 190.2663623 62.30196289 189.53272461 62.45751953 188.77685547 C69.95057629 151.02057918 65.408835 108.19669327 50 73 C49.62246582 72.13552246 49.24493164 71.27104492 48.85595703 70.38037109 C42.78424683 56.68898268 35.85174926 44.08456203 27 32 C26.54657227 31.37834961 26.09314453 30.75669922 25.62597656 30.11621094 C18.86529128 20.95545769 11.24298458 12.67507671 3.33764648 4.49536133 C2 3 2 3 0 0 Z " fill="#67A2A3" transform="translate(654,291)"/>
<path d="M0 0 C0.99 0.495 0.99 0.495 2 1 C1.319375 1.495 0.63875 1.99 -0.0625 2.5 C-3.09221044 5.07847697 -5.55956589 7.80369107 -8.1328125 10.82421875 C-9.3329098 12.22265849 -10.55543513 13.60232251 -11.8046875 14.95703125 C-22.4537319 26.51190723 -31.31177212 39.33043208 -39 53 C-39.34514648 53.60134766 -39.69029297 54.20269531 -40.04589844 54.82226562 C-65.64325352 99.57557564 -70.28267812 154.67388616 -57.37109375 204.1171875 C-50.0408791 230.81151665 -37.70828292 256.65152909 -20 278 C-19.10540873 279.09890947 -18.21087873 280.19786884 -17.31640625 281.296875 C-9.19887518 291.1682204 -0.63533729 300.77772224 10 308 C9.34 308.33 8.68 308.66 8 309 C5.5202361 307.89892244 3.19095929 306.73190146 0.8125 305.4375 C-0.30125 304.83772339 -0.30125 304.83772339 -1.4375 304.22583008 C-17.95516574 295.2016021 -33.88439325 285.21544625 -49 274 C-49.58426758 273.5673584 -50.16853516 273.1347168 -50.77050781 272.68896484 C-59.13205654 266.45968284 -67.10780245 259.80833576 -75 253 C-76.10988281 252.04287109 -76.10988281 252.04287109 -77.2421875 251.06640625 C-79.17164864 249.38878241 -81.08754223 247.69696957 -83 246 C-84.13115234 245.00806641 -84.13115234 245.00806641 -85.28515625 243.99609375 C-92.13446578 237.92832192 -98.57432622 231.50747161 -105 225 C-107.43662676 222.55221311 -109.88049658 220.11594206 -112.359375 217.7109375 C-117.5188121 212.66952674 -122.23653599 207.46224422 -126.734375 201.82421875 C-129.01785807 198.97773899 -131.37838921 196.21075455 -133.75 193.4375 C-140.27315878 185.60970947 -146.17109196 177.35222986 -152 169 C-152.83337891 167.81809082 -152.83337891 167.81809082 -153.68359375 166.61230469 C-155.29039767 164.3183558 -156.86816601 162.00719791 -158.4375 159.6875 C-158.92855225 158.98858643 -159.41960449 158.28967285 -159.92553711 157.56958008 C-163.11760824 152.74636 -163.11760824 152.74636 -162.59375 149.421875 C-160.56453962 146.33827099 -158.39082426 143.42242539 -156.0625 140.5625 C-155.06222902 139.31401914 -154.06223669 138.06531499 -153.0625 136.81640625 C-152.29679688 135.86531982 -152.29679688 135.86531982 -151.515625 134.89501953 C-150.07753074 133.0969384 -148.65955406 131.285348 -147.25 129.46484375 C-140.75553093 121.08180335 -133.96905422 112.99143995 -127 105 C-126.45472656 104.37005127 -125.90945312 103.74010254 -125.34765625 103.09106445 C-121.16531239 98.27608235 -116.87503661 93.57778958 -112.5 88.9375 C-111.81292969 88.20869629 -111.12585938 87.47989258 -110.41796875 86.72900391 C-92.06861829 67.35232464 -92.06861829 67.35232464 -82.86328125 59.5859375 C-80.64528815 57.69808593 -78.51757845 55.72297208 -76.375 53.75 C-70.85790371 48.77362984 -65.05691586 44.19786879 -59.16796875 39.67407227 C-57.49131123 38.37938301 -55.82379588 37.07284942 -54.16015625 35.76147461 C-46.24637465 29.55158562 -38.06859441 23.89947316 -29.625 18.4375 C-28.34591564 17.60584291 -27.06686315 16.77413679 -25.7878418 15.94238281 C-4.96308881 2.43025652 -4.96308881 2.43025652 0 0 Z " fill="#6CA1B2" transform="translate(370,292)"/>
<path d="M0 0 C49.15482234 0 49.15482234 0 59 9 C65.11209507 15.60767035 67.44491654 22.77535635 67.2734375 31.7265625 C66.24809131 40.25158372 62.70401576 46.72396966 56 52 C51.64516129 55 51.64516129 55 49 55 C52.93779542 62.30724923 57.29506088 69.28018477 61.80273438 76.24609375 C62.31513672 77.04660156 62.82753906 77.84710937 63.35546875 78.671875 C64.04612427 79.74066895 64.04612427 79.74066895 64.75073242 80.83105469 C66.08764665 83.15216979 67.06182944 85.49418731 68 88 C61.04628762 89.71408605 53.74360419 90.92359556 47 88 C40.47363288 81.54912585 36.36270818 72.88869798 32.36254883 64.72729492 C31.01328534 61.88521057 31.01328534 61.88521057 29 59 C25.37 58.67 21.74 58.34 18 58 C18 67.9 18 77.8 18 88 C12.06 88 6.12 88 0 88 C0 58.96 0 29.92 0 0 Z " fill="#354751" transform="translate(337,697)"/>
<path d="M0 0 C-0.61957272 11.0544817 -1.70664562 22.00648777 -3 33 C-3.17999608 34.55855814 -3.35968477 36.11715182 -3.5390625 37.67578125 C-3.71325838 39.17972034 -3.88772746 40.68362782 -4.0625 42.1875 C-4.18129517 43.21109619 -4.18129517 43.21109619 -4.30249023 44.25537109 C-4.52815849 46.17106492 -4.76391898 48.0855615 -5 50 C-5.14606689 51.27319092 -5.29213379 52.54638184 -5.44262695 53.8581543 C-6.12346884 57.6959792 -7.11012954 58.52895709 -10.1875 60.8125 C-16.34628451 65.87464879 -19.83254225 71.74915431 -22.58056641 79.16796875 C-22.84737213 79.88621826 -23.11417786 80.60446777 -23.3890686 81.34448242 C-23.59067596 81.89080322 -23.79228333 82.43712402 -24 83 C-30.63438197 83.28813669 -37.26891619 83.5725544 -43.90356445 83.85449219 C-46.15653011 83.95065831 -48.40946075 84.04764876 -50.66235352 84.14550781 C-53.9167388 84.2867209 -57.17124211 84.42488379 -60.42578125 84.5625 C-61.41894852 84.60624756 -62.41211578 84.64999512 -63.43537903 84.69506836 C-69.96081642 84.96719686 -76.46916325 85.05024142 -83 85 C-81.76944444 60.53250055 -69.48715739 37.91347802 -51.45507812 21.60253906 C-37.70955309 9.78756529 -18.50552407 0 0 0 Z " fill="#FCFDFD" transform="translate(496,353)"/>
<path d="M0 0 C5.94 0 11.88 0 18 0 C24.40529397 7.51925813 24.40529397 7.51925813 26.3046875 11.18359375 C29.1207024 16.34487725 32.44834039 21.04242332 35.875 25.8125 C42.69491056 35.46588556 49.32496196 45.24417518 56 55 C56.33 36.85 56.66 18.7 57 0 C62.94 0 68.88 0 75 0 C75 29.04 75 58.08 75 88 C57 88 57 88 52.63671875 84.2578125 C51.10083008 81.80371094 51.10083008 81.80371094 49.6875 79.125 C48.56231288 77.27717187 47.43465418 75.43084676 46.3046875 73.5859375 C45.7590918 72.6484668 45.21349609 71.71099609 44.65136719 70.74511719 C42.12973456 66.55333166 39.23352982 62.66891345 36.3125 58.75 C30.34793743 50.6276543 24.71404632 42.3113401 19 34 C18.67 51.82 18.34 69.64 18 88 C12.06 88 6.12 88 0 88 C0 58.96 0 29.92 0 0 Z " fill="#364953" transform="translate(190,697)"/>
<path d="M0 0 C47.55882353 0 47.55882353 0 58.5625 9.125 C64.75281292 16.42639473 66.80966019 23.00961745 66.4140625 32.59765625 C65.48647772 40.2196029 62.83818914 46.24880344 57.12890625 51.46484375 C50.18812843 56.469845 42.44834792 59.14998986 33.91796875 59.09765625 C33.0777417 59.09515869 32.23751465 59.09266113 31.37182617 59.09008789 C29.79558472 59.07643188 29.79558472 59.07643188 28.1875 59.0625 C23.1446875 59.0315625 23.1446875 59.0315625 18 59 C18 68.57 18 78.14 18 88 C12.06 88 6.12 88 0 88 C0 58.96 0 29.92 0 0 Z " fill="#334650" transform="translate(426,697)"/>
<path d="M0 0 C5.94 0 11.88 0 18 0 C18 11.22 18 22.44 18 34 C29.88 34 41.76 34 54 34 C54 22.78 54 11.56 54 0 C59.94 0 65.88 0 72 0 C72 29.04 72 58.08 72 88 C66.06 88 60.12 88 54 88 C54 76.12 54 64.24 54 52 C42.12 52 30.24 52 18 52 C18 63.88 18 75.76 18 88 C12.06 88 6.12 88 0 88 C0 58.96 0 29.92 0 0 Z " fill="#334650" transform="translate(761,697)"/>
<path d="M0 0 C5.94 0 11.88 0 18 0 C18.33 11.88 18.66 23.76 19 36 C21.97 32.37 24.94 28.74 28 25 C30.49915892 22.05981304 32.99786419 19.12611137 35.56298828 16.24365234 C38.01792124 13.45579536 40.07690874 10.87121556 41.9921875 7.6640625 C44.13541067 4.20466909 45.55692754 2.21435084 49 0 C56.24314202 -1.31401516 63.71219408 -0.67786929 71 0 C68.59910661 4.36080636 65.64030425 7.90805099 62.375 11.625 C61.29455626 12.86890934 60.2151392 14.11371114 59.13671875 15.359375 C58.33886963 16.28073242 58.33886963 16.28073242 57.52490234 17.22070312 C55.36853057 19.73681544 53.27540642 22.30195181 51.1875 24.875 C47.55986597 29.34334484 43.82890945 33.70324953 40 38 C47.23795139 49.94919975 55.61197398 61.12016219 63.953125 72.3125 C64.59757568 73.17939453 65.24202637 74.04628906 65.90600586 74.93945312 C67.16012044 76.62381139 68.41863308 78.30490546 69.68188477 79.98242188 C70.24705811 80.74103516 70.81223145 81.49964844 71.39453125 82.28125 C72.15020386 83.28768555 72.15020386 83.28768555 72.92114258 84.31445312 C74 86 74 86 74 88 C54.81168011 89.60892775 54.81168011 89.60892775 49.21484375 86.40625 C47.13534092 83.73717384 45.62142163 80.97260631 44 78 C41.83847277 74.88771509 39.56684219 71.8579323 37.3125 68.8125 C36.22203219 67.30050008 35.13468846 65.78624117 34.05078125 64.26953125 C33.5398291 63.55490723 33.02887695 62.8402832 32.50244141 62.10400391 C32.00663574 61.40968262 31.51083008 60.71536133 31 60 C30.50290527 59.30438965 30.00581055 58.6087793 29.49365234 57.89208984 C28.32871504 56.26166933 27.16429604 54.6308785 26 53 C25.030625 53.78375 24.06125 54.5675 23.0625 55.375 C22.51722656 55.81585937 21.97195313 56.25671875 21.41015625 56.7109375 C19.24804882 58.68737919 19.01042411 59.85797921 18.79467773 62.79736328 C18.75802002 63.95993652 18.7213623 65.12250977 18.68359375 66.3203125 C18.64169922 67.57714844 18.59980469 68.83398438 18.55664062 70.12890625 C18.51732422 71.44761719 18.47800781 72.76632812 18.4375 74.125 C18.39430488 75.46485751 18.35069027 76.80470156 18.30664062 78.14453125 C18.2002909 81.4295562 18.09961683 84.71476398 18 88 C12.06 88 6.12 88 0 88 C0 58.96 0 29.92 0 0 Z " fill="#33464F" transform="translate(593,697)"/>
<path d="M0 0 C18.15 0 36.3 0 55 0 C55 5.94 55 11.88 55 18 C42.79 18 30.58 18 18 18 C18 23.61 18 29.22 18 35 C29.55 35 41.1 35 53 35 C53 40.61 53 46.22 53 52 C41.45 52 29.9 52 18 52 C18 57.94 18 63.88 18 70 C30.87 70 43.74 70 57 70 C57 75.94 57 81.88 57 88 C38.19 88 19.38 88 0 88 C0 58.96 0 29.92 0 0 Z " fill="#354851" transform="translate(512,697)"/>
<path d="M0 0 C6.44140808 4.46954846 10.94706272 9.99169412 12.79296875 17.7109375 C12.81969029 19.37738994 12.82382766 21.04455654 12.79296875 22.7109375 C-2.54413966 24.09435151 -2.54413966 24.09435151 -6.53125 20.77734375 C-8.01953125 18.3359375 -8.01953125 18.3359375 -9.1015625 15.875 C-10.46012069 13.21549034 -11.41135518 12.66493645 -14.20703125 11.7109375 C-18.50984159 11.11824269 -22.16448547 11.24511917 -26.14453125 13.0234375 C-28.97478939 15.33910325 -30.11644297 17.00132928 -30.58203125 20.6484375 C-30.106431 24.53250619 -29.22984035 25.28301723 -26.20703125 27.7109375 C-23.70360194 28.66503172 -21.3387477 29.4456624 -18.76953125 30.1484375 C-17.33371201 30.57109438 -15.89882422 30.99692728 -14.46484375 31.42578125 C-13.74973633 31.63831543 -13.03462891 31.85084961 -12.29785156 32.06982422 C7.48339895 38.13539683 7.48339895 38.13539683 12.73046875 47.3359375 C15.60074104 53.76305883 16.17344799 59.75544187 13.8359375 66.453125 C10.10929264 74.42696194 4.67573334 79.82410721 -3.20703125 83.7109375 C-12.26744986 86.86238745 -25.09403736 87.68142331 -34.15234375 83.9453125 C-41.23345025 79.69126373 -47.82467286 73.82632608 -50.20703125 65.7109375 C-50.7514842 62.6809385 -51.01435827 59.79370523 -51.20703125 56.7109375 C-45.59703125 56.7109375 -39.98703125 56.7109375 -34.20703125 56.7109375 C-33.65015625 57.9484375 -33.09328125 59.1859375 -32.51953125 60.4609375 C-30.65516801 64.19627519 -28.77770878 66.42204165 -25.20703125 68.7109375 C-19.9040346 70.47860305 -14.95977525 70.4120351 -9.76953125 68.3359375 C-7.16652284 66.81607732 -7.16652284 66.81607732 -5.20703125 64.7109375 C-4.77488829 62.6445762 -4.77488829 62.6445762 -4.76953125 60.3359375 C-4.72957031 59.56507813 -4.68960938 58.79421875 -4.6484375 58 C-5.05872532 55.56317383 -5.05872532 55.56317383 -7.00390625 53.6328125 C-12.55028071 50.30498782 -18.81545095 49.12338696 -25.04101562 47.53125 C-33.65879636 45.19715515 -42.19741862 42.29487588 -47.26953125 34.5234375 C-50.50433894 28.68696953 -50.94832377 23.28775369 -50.20703125 16.7109375 C-47.41472343 7.69465383 -41.3538142 1.73551137 -33.20703125 -2.7265625 C-23.14802345 -6.77108557 -9.25037734 -5.40287526 0 0 Z " fill="#334650" transform="translate(726.20703125,700.2890625)"/>
<path d="M0 0 C18.81 0 37.62 0 57 0 C57 5.73283755 56.32523165 6.3918512 52.8125 10.625 C48.46149173 16.01057435 44.48807215 21.5677005 40.625 27.3125 C34.69579797 36.09483193 28.44013607 44.58720963 22 53 C14.81242473 50.50830724 11.41400406 39.90076448 8.25390625 33.41796875 C3.26562692 22.33428574 1.2089284 12.089284 0 0 Z " fill="#FAFBFB" transform="translate(413,451)"/>
<path d="M0 0 C5.94 0 11.88 0 18 0 C18 29.04 18 58.08 18 88 C12.06 88 6.12 88 0 88 C0 58.96 0 29.92 0 0 Z " fill="#31454E" transform="translate(292,697)"/>
<path d="M0 0 C4.85055269 3.18069029 9.00902989 7.98306981 11.14453125 13.40625 C12.26086191 21.32790408 11.55768568 27.66077613 6.99609375 34.30859375 C2.59606187 39.29343999 -2.57201251 41.96187784 -9.15234375 42.64453125 C-15.29048352 42.8302393 -19.84364107 42.09521329 -24.85546875 38.40625 C-29.15447911 34.28875341 -32.59368116 30.22811619 -33.15625 24.1640625 C-33.16011719 22.96523438 -33.16398437 21.76640625 -33.16796875 20.53125 C-33.18472656 19.33757812 -33.20148438 18.14390625 -33.21875 16.9140625 C-32.4609605 9.59691232 -28.34426503 4.91571748 -22.85546875 0.40625 C-15.21228113 -3.98150585 -7.81549054 -3.83246471 0 0 Z " fill="#F8FAFA" transform="translate(523.85546875,424.59375)"/>
<path d="M0 0 C0.66 0 1.32 0 2 0 C2.43248216 4.12545042 2.85951303 8.2514199 3.28173828 12.37792969 C3.42578844 13.778471 3.57126661 15.17886627 3.71826172 16.57910156 C5.21963851 30.898355 5.21963851 30.898355 5 38 C-8.7750846 37.27499555 -21.03133998 31.39926814 -33 25 C-33 24.34 -33 23.68 -33 23 C-31.56982422 21.83007812 -31.56982422 21.83007812 -29.5546875 20.53125 C-28.813396 20.04696533 -28.07210449 19.56268066 -27.30834961 19.0637207 C-26.50534424 18.54769287 -25.70233887 18.03166504 -24.875 17.5 C-23.22663287 16.42245478 -21.57951287 15.34299954 -19.93359375 14.26171875 C-19.10585449 13.71821777 -18.27811523 13.1747168 -17.42529297 12.61474609 C-13.87728695 10.25250412 -10.39933688 7.7987701 -6.9375 5.3125 C-6.34888184 4.89097656 -5.76026367 4.46945312 -5.15380859 4.03515625 C-2.46451655 2.15397575 -2.46451655 2.15397575 0 0 Z " fill="#F8FBFB" transform="translate(489,500)"/>
<path d="M0 0 C5.506875 -0.1546875 5.506875 -0.1546875 11.125 -0.3125 C12.2711377 -0.35802002 13.41727539 -0.40354004 14.59814453 -0.45043945 C23.04279813 -0.56519671 23.04279813 -0.56519671 26.6796875 2.39453125 C29.92220492 6.03553987 30.28974608 8.07002078 30.21875 12.96875 C29.79400929 16.9127709 27.90386499 19.20911813 25 21.75 C21.73021813 23.79361367 19.09513046 24.12162503 15.33203125 24.09765625 C14.52741455 24.09515869 13.72279785 24.09266113 12.89379883 24.09008789 C11.36855591 24.07643188 11.36855591 24.07643188 9.8125 24.0625 C4.9553125 24.0315625 4.9553125 24.0315625 0 24 C0 16.08 0 8.16 0 0 Z " fill="#FBFCFD" transform="translate(355,715)"/>
<path d="M0 0 C3.50625 -0.103125 7.0125 -0.20625 10.625 -0.3125 C11.71893066 -0.35802002 12.81286133 -0.40354004 13.93994141 -0.45043945 C22.01154642 -0.5651981 22.01154642 -0.5651981 25.6484375 2.39453125 C29.29231811 6.43185412 29.39383755 9.14665123 29.35546875 14.44921875 C28.7778449 18.5941459 27.06536529 20.21978497 24 23 C21.05868109 23.98043964 19.17498335 24.11621202 16.11328125 24.09765625 C15.26805908 24.09515869 14.42283691 24.09266113 13.55200195 24.09008789 C12.48296631 24.08098389 11.41393066 24.07187988 10.3125 24.0625 C5.2078125 24.0315625 5.2078125 24.0315625 0 24 C0 16.08 0 8.16 0 0 Z " fill="#FCFDFE" transform="translate(444,715)"/>
<path d="M0 0 C0.66 0 1.32 0 2 0 C2.05819916 0.65716003 2.11639832 1.31432007 2.17636108 1.99139404 C2.79167997 8.93676577 3.40859479 15.88199452 4.02636719 22.82714844 C4.25560367 25.40654042 4.48445596 27.98596657 4.71289062 30.56542969 C5.04451899 34.30933941 5.37735854 38.05313859 5.7109375 41.796875 C5.81968201 43.01918823 5.92842651 44.24150146 6.04046631 45.50085449 C6.7642227 53.56618851 7.53603935 61.62525649 8.42245483 69.67449951 C8.93042118 74.47926201 9.20745959 79.16717952 9 84 C7.375 86 7.375 86 5 87 C3.00039395 87.03969441 0.99951978 87.04382509 -1 87 C-1.07282247 67.05518701 -0.87738108 47.12917758 -0.5 27.1875 C-0.45128663 24.52540009 -0.40340539 21.86328598 -0.35546875 19.20117188 C-0.23971246 12.80072879 -0.12108168 6.40034445 0 0 Z " fill="#EFF3F4" transform="translate(513,314)"/>
<path d="M0 0 C0 27.39 0 54.78 0 83 C-0.33 83 -0.66 83 -1 83 C-2.23153544 72.43777251 -3.33309803 61.86388556 -4.36459351 51.28030396 C-4.55750272 49.3012666 -4.75199691 47.32238394 -4.9465332 45.34350586 C-5.76210135 36.9030485 -6.45063295 28.46197134 -7 20 C-7.05728271 19.1646875 -7.11456543 18.329375 -7.17358398 17.46875 C-7.29838537 15.43942986 -7.37030818 13.40704353 -7.4375 11.375 C-7.49808594 10.06273437 -7.55867188 8.75046875 -7.62109375 7.3984375 C-7 4 -7 4 -4.03515625 1.5390625 C-1 0 -1 0 0 0 Z " fill="#F2F7F8" transform="translate(509,487)"/>
<path d="M0 0 C5.94 0 11.88 0 18 0 C18.66 1.65 19.32 3.3 20 5 C19.01 4.34 18.02 3.68 17 3 C12.05 2.67 7.1 2.34 2 2 C2 29.72 2 57.44 2 86 C6.62 86 11.24 86 16 86 C16 68.18 16 50.36 16 32 C17.93026402 35.86052804 18.24692791 37.13285064 18.22705078 41.22753906 C18.22689972 42.26831604 18.22674866 43.30909302 18.22659302 44.38140869 C18.21627045 45.49820007 18.20594788 46.61499146 18.1953125 47.765625 C18.1924826 48.91415955 18.18965271 50.06269409 18.18673706 51.24603271 C18.17554263 54.91412781 18.15043904 58.5819787 18.125 62.25 C18.11496926 64.73697564 18.10584358 67.22395511 18.09765625 69.7109375 C18.07560564 75.80738575 18.04108052 81.90365147 18 88 C12.06 88 6.12 88 0 88 C0 58.96 0 29.92 0 0 Z " fill="#263941" transform="translate(190,697)"/>
<path d="M0 0 C3.08813077 2.05875385 4.66221204 3.4716479 5.4765625 7.15625 C5.75651394 11.57653582 5.43904153 13.44542123 2.625 17 C-1.47126303 20.12096231 -3.81739837 20.43920353 -9 20 C-11.75329021 18.20437595 -13.52627461 16.94745078 -15 14 C-15.42071592 10.94079426 -15.48514117 8.0532254 -15 5 C-10.51832951 -0.66105746 -6.95672877 -1.88882502 0 0 Z " fill="#33454D" transform="translate(518,435)"/>
<path d="M0 0 C8.51594469 -0.07730472 16.96816511 0.11746632 25.46875 0.62109375 C26.59269165 0.68531021 27.7166333 0.74952667 28.87463379 0.81568909 C31.2241457 0.95089905 33.57355206 1.08795494 35.92285156 1.22680664 C39.51858549 1.43859468 43.11470835 1.64251667 46.7109375 1.84570312 C49.00523545 1.97869967 51.29950733 2.11214702 53.59375 2.24609375 C54.66459839 2.3065538 55.73544678 2.36701385 56.83874512 2.42930603 C57.83748657 2.48929276 58.83622803 2.54927948 59.86523438 2.61108398 C60.73869507 2.66215805 61.61215576 2.71323212 62.51208496 2.76585388 C65.06114749 3.0057548 67.50007599 3.45426635 70 4 C70 4.33 70 4.66 70 5 C63.40643702 5.2912497 56.81258462 5.57516661 50.21850586 5.85449219 C47.98536387 5.94989414 45.75228738 6.04684459 43.51928711 6.14550781 C29.00213692 6.78563412 14.53142387 7.13858699 0 7 C0 4.69 0 2.38 0 0 Z " fill="#F1F5F6" transform="translate(555,439)"/>
<path d="M0 0 C5.94 0 11.88 0 18 0 C18 29.04 18 58.08 18 88 C12.06 88 6.12 88 0 88 C0 76.45 0 64.9 0 53 C0.33 53 0.66 53 1 53 C1 63.89 1 74.78 1 86 C5.95 86 10.9 86 16 86 C15.99476318 84.73969971 15.98952637 83.47939941 15.98413086 82.1809082 C15.88171462 55.09982135 16.07578901 28.06617896 17 1 C11.72 1 6.44 1 1 1 C1 11.89 1 22.78 1 34 C0.67 34 0.34 34 0 34 C0 22.78 0 11.56 0 0 Z " fill="#1A272D" transform="translate(815,697)"/>
<path d="M0 0 C3.47413995 1.30617188 6.58386629 2.82975931 9.7578125 4.75 C10.63050781 5.2759375 11.50320313 5.801875 12.40234375 6.34375 C13.75005859 7.16359375 13.75005859 7.16359375 15.125 8 C16.48431641 8.81984375 16.48431641 8.81984375 17.87109375 9.65625 C21.28669695 11.72079238 24.67877181 13.78584787 28 16 C28.99 16 29.98 16 31 16 C29.02 14.02 27.04 12.04 25 10 C25.33 9.34 25.66 8.68 26 8 C26.7734375 8.79664063 27.546875 9.59328125 28.34375 10.4140625 C33.93539474 16.12077646 39.40559021 21.43463938 46 26 C45.01 26.495 45.01 26.495 44 27 C41.5203715 25.89898256 39.19094046 24.73163942 36.8125 23.4375 C36.07942627 23.04344971 35.34635254 22.64939941 34.59106445 22.2434082 C27.85329193 18.56667844 21.25813484 14.65354952 14.6875 10.6875 C13.69145752 10.08929443 12.69541504 9.49108887 11.66918945 8.87475586 C10.73034912 8.30120361 9.79150879 7.72765137 8.82421875 7.13671875 C7.98979248 6.62842529 7.15536621 6.12013184 6.2956543 5.59643555 C3.90986554 3.93731903 1.98861158 2.11209586 0 0 Z " fill="#7BA9B7" transform="translate(334,574)"/>
<path d="M0 0 C13.40054108 -0.22170013 13.40054108 -0.22170013 19 1 C20.5 3.0625 20.5 3.0625 21 5 C17.17700575 8.82299425 10.6634916 8.05516549 5.5 8.0625 C3.99993869 8.0466861 2.49988961 8.0276619 1 8 C1 7.67 1 7.34 1 7 C2.65 7 4.3 7 6 7 C6 5.02 6 3.04 6 1 C4.02 1 2.04 1 0 1 C0 0.67 0 0.34 0 0 Z " fill="#283A42" transform="translate(668,440)"/>
<path d="M0 0 C1.32 0.66 2.64 1.32 4 2 C2.6744419 5.62276315 1.05653045 8.63505348 -1.125 11.8125 C-1.93324219 12.99779297 -1.93324219 12.99779297 -2.7578125 14.20703125 C-3.16773438 14.79871094 -3.57765625 15.39039063 -4 16 C-4.99 15.01 -5.98 14.02 -7 13 C-6.67 12.01 -6.34 11.02 -6 10 C-5.34 9.67 -4.68 9.34 -4 9 C-3.2884375 7.7315625 -3.2884375 7.7315625 -2.5625 6.4375 C-2.046875 5.633125 -1.53125 4.82875 -1 4 C-0.01 4 0.98 4 2 4 C2 3.34 2 2.68 2 2 C1.01 1.67 0.02 1.34 -1 1 C-0.67 0.67 -0.34 0.34 0 0 Z " fill="#31424A" transform="translate(617,332)"/>
<path d="M0 0 C0.99 0.495 0.99 0.495 2 1 C3.4465242 1.15067214 4.8987934 1.24861036 6.3515625 1.31640625 C7.62773438 1.37924805 7.62773438 1.37924805 8.9296875 1.44335938 C9.81914063 1.48267578 10.70859375 1.52199219 11.625 1.5625 C12.97078125 1.62727539 12.97078125 1.62727539 14.34375 1.69335938 C16.56234283 1.79956861 18.7810488 1.90161194 21 2 C21.33 1.34 21.66 0.68 22 0 C22.66 1.32 23.32 2.64 24 4 C16.74 4 9.48 4 2 4 C1.34 2.68 0.68 1.36 0 0 Z " fill="#29363C" transform="translate(643,781)"/>
<path d="M0 0 C0 3.59857954 -0.95830515 5.09451118 -3 8 C-3.66 8 -4.32 8 -5 8 C-5 8.66 -5 9.32 -5 10 C-5.66 9.67 -6.32 9.34 -7 9 C-8.73868744 8.84733388 -10.48247501 8.75067404 -12.2265625 8.68359375 C-13.2578125 8.64169922 -14.2890625 8.59980469 -15.3515625 8.55664062 C-16.43179687 8.51732422 -17.51203125 8.47800781 -18.625 8.4375 C-19.71296875 8.39431641 -20.8009375 8.35113281 -21.921875 8.30664062 C-24.6144517 8.2003547 -27.30712253 8.09831943 -30 8 C-30 7.67 -30 7.34 -30 7 C-29.39526855 6.98541748 -28.79053711 6.97083496 -28.16748047 6.95581055 C-25.40270735 6.88090812 -22.63908643 6.78438927 -19.875 6.6875 C-18.44800781 6.65366211 -18.44800781 6.65366211 -16.9921875 6.61914062 C-10.70782736 6.37911298 -5.97475114 5.67727603 -1.125 1.3125 C-0.75375 0.879375 -0.3825 0.44625 0 0 Z " fill="#1F2D34" transform="translate(384,732)"/>
<path d="M0 0 C2.50037734 2.17424117 3.43628586 3.73045798 4 7 C4.99 6.67 5.98 6.34 7 6 C9 9 9 9 8.9375 11.8125 C9.0114346 15.58316475 10.30500491 17.68370526 12 21 C11.67 21.99 11.34 22.98 11 24 C5.04296875 12.0859375 5.04296875 12.0859375 3.99755859 9.98730469 C3.09263065 8.18453586 2.16662702 6.39238471 1.23828125 4.6015625 C0 2 0 2 0 0 Z " fill="#283840" transform="translate(678,349)"/>
<path d="M0 0 C0.66 0.33 1.32 0.66 2 1 C-4.93 7.93 -11.86 14.86 -19 22 C-19 19 -19 19 -17.73071289 17.421875 C-16.86047485 16.59429687 -16.86047485 16.59429687 -15.97265625 15.75 C-15.34552734 15.1415625 -14.71839844 14.533125 -14.07226562 13.90625 C-13.07743164 12.96265625 -13.07743164 12.96265625 -12.0625 12 C-10.75722478 10.75469343 -9.45623755 9.50487256 -8.16015625 8.25 C-7.57886963 7.69828125 -6.99758301 7.1465625 -6.39868164 6.578125 C-4.76156219 4.938994 -4.76156219 4.938994 -4 2 C-2.0625 0.75 -2.0625 0.75 0 0 Z " fill="#263D4B" transform="translate(278,358)"/>
<path d="M0 0 C0.66 0.33 1.32 0.66 2 1 C1.53625977 1.45850342 1.07251953 1.91700684 0.59472656 2.3894043 C-1.52285731 4.48608747 -3.63645128 6.58674959 -5.75 8.6875 C-6.47960937 9.40873047 -7.20921875 10.12996094 -7.9609375 10.87304688 C-11.53707448 14.43292869 -14.96604457 17.95206473 -18 22 C-18.66 21.67 -19.32 21.34 -20 21 C-13.59669232 13.71129669 -6.9151883 6.79885803 0 0 Z " fill="#78A8B5" transform="translate(275,363)"/>
<path d="M0 0 C0 0.66 0 1.32 0 2 C-6.93 2 -13.86 2 -21 2 C-21 1.34 -21 0.68 -21 0 C-17.87549468 -0.19645093 -14.75038555 -0.38063489 -11.625 -0.5625 C-10.29082031 -0.64661133 -10.29082031 -0.64661133 -8.9296875 -0.73242188 C-7.65351563 -0.80493164 -7.65351563 -0.80493164 -6.3515625 -0.87890625 C-5.56604004 -0.9260376 -4.78051758 -0.97316895 -3.97119141 -1.02172852 C-2 -1 -2 -1 0 0 Z " fill="#2A393E" transform="translate(405,783)"/>
<path d="M0 0 C0.33 0 0.66 0 1 0 C1 9.24 1 18.48 1 28 C1.66 28 2.32 28 3 28 C2.625 29.9375 2.625 29.9375 2 32 C1.01 32.495 1.01 32.495 0 33 C0 22.11 0 11.22 0 0 Z " fill="#EAF3F8" transform="translate(611,701)"/>
<path d="M0 0 C0 0.33 0 0.66 0 1 C-1.65 1.33 -3.3 1.66 -5 2 C-5 2.33 -5 2.66 -5 3 C-11.44070471 3.10655578 -17.62641289 2.96205088 -24 2 C-24 1.67 -24 1.34 -24 1 C-16.02509872 -0.32915021 -8.05813281 -0.08801359 0 0 Z " fill="#3E4F59" transform="translate(536,653)"/>
<path d="M0 0 C0.66 0.66 1.32 1.32 2 2 C1.10796875 2.81984375 0.2159375 3.6396875 -0.703125 4.484375 C-1.88545786 5.57287192 -3.06774723 6.66141608 -4.25 7.75 C-5.12978516 8.55824219 -5.12978516 8.55824219 -6.02734375 9.3828125 C-9.08156981 12.19681853 -12.09140745 15.03381156 -15 18 C-15.66 17.67 -16.32 17.34 -17 17 C-11.39 11.39 -5.78 5.78 0 0 Z " fill="#1E2C32" transform="translate(657,565)"/>
<path d="M0 0 C3.96 0 7.92 0 12 0 C12.33 0.99 12.66 1.98 13 3 C6.73 3 0.46 3 -6 3 C-6 2.67 -6 2.34 -6 2 C-4.02 1.67 -2.04 1.34 0 1 C0 0.67 0 0.34 0 0 Z " fill="#3F4E55" transform="translate(424,437)"/>
<path d="M0 0 C4.77609498 1.64178265 8.79382904 4.26546702 13 7 C12.01 7.33 11.02 7.66 10 8 C10.66 9.32 11.32 10.64 12 12 C7.47384007 8.32167983 3.60575001 4.58913637 0 0 Z " fill="#7AACAE" transform="translate(654,291)"/>
<path d="M0 0 C2.125 -0.4375 2.125 -0.4375 5 0 C7.276147 2.12689146 9.1458722 4.5023433 11 7 C6.87248551 6.39301257 3.6678852 4.96189209 0 3 C0 2.01 0 1.02 0 0 Z " fill="#69A0AF" transform="translate(355,584)"/>
<path d="M0 0 C0.66 0.33 1.32 0.66 2 1 C1 4 1 4 -1.6171875 5.53515625 C-2.69226563 6.03917969 -3.76734375 6.54320312 -4.875 7.0625 C-8.09175879 8.58561591 -11.03543637 10.02362425 -14 12 C-12.47547071 7.7158797 -9.61196542 6.13529708 -5.875 3.75 C-4.77929688 3.04359375 -3.68359375 2.3371875 -2.5546875 1.609375 C-1.71164062 1.07828125 -0.86859375 0.5471875 0 0 Z " fill="#7AA9B5" transform="translate(341,310)"/>
<path d="M0 0 C0.33 0.66 0.66 1.32 1 2 C-0.29296875 4.53125 -0.29296875 4.53125 -2.1875 7.5 C-2.79980469 8.4796875 -3.41210938 9.459375 -4.04296875 10.46875 C-5.95086487 12.93644798 -7.12332911 13.92842415 -10 15 C-8.59601721 10.89889238 -6.62912962 8.01910841 -3.875 4.6875 C-3.15054688 3.80449219 -2.42609375 2.92148437 -1.6796875 2.01171875 C-1.12539062 1.34785156 -0.57109375 0.68398438 0 0 Z " fill="#25343A" transform="translate(203,409)"/>
<path d="M0 0 C0.66 0.33 1.32 0.66 2 1 C2 1.66 2 2.32 2 3 C3.32 3.33 4.64 3.66 6 4 C6 4.99 6 5.98 6 7 C3.69 6.67 1.38 6.34 -1 6 C-1.33 4.35 -1.66 2.7 -2 1 C-1.34 0.67 -0.68 0.34 0 0 Z " fill="#31424B" transform="translate(411,633)"/>
<path d="M0 0 C1.98 0.66 3.96 1.32 6 2 C5.95875 2.886875 5.9175 3.77375 5.875 4.6875 C5.99897246 7.97277013 6.61387904 10.05449295 8 13 C4.32117927 9.71533863 2.24849899 6.33639092 0 2 C0 1.34 0 0.68 0 0 Z " fill="#28373E" transform="translate(368,757)"/>
<path d="M0 0 C3 1 3 1 4.6875 4.0625 C5.120625 5.031875 5.55375 6.00125 6 7 C6.99 7 7.98 7 9 7 C9.33 9.31 9.66 11.62 10 14 C6.07511907 10.29939798 2.97784457 6.5093075 0 2 C0 1.34 0 0.68 0 0 Z " fill="#26343B" transform="translate(627,759)"/>
<path d="M0 0 C0.66 0.33 1.32 0.66 2 1 C0.47005208 2.23697917 -1.05989583 3.47395833 -2.58984375 4.7109375 C-4.13266437 5.9666391 -4.13266437 5.9666391 -5 8 C-7.3140622 8.73075648 -9.64828869 9.40138258 -12 10 C-8.29909479 6.0747975 -4.45040344 3.05419844 0 0 Z " fill="#78A7B4" transform="translate(324,322)"/>
<path d="M0 0 C0.33 0 0.66 0 1 0 C1.6592672 5.2741376 0.06928516 8.09539559 -2.7109375 12.36328125 C-4 14 -4 14 -6 15 C-5.48866068 10.52578095 -3.76406839 8.45508549 -1 5 C-0.21053391 2.31492671 -0.21053391 2.31492671 0 0 Z " fill="#223138" transform="translate(739,761)"/>
<path d="M0 0 C0.66 0.33 1.32 0.66 2 1 C2.59355614 3.64860427 2.74209269 6.29197322 3 9 C-1.95 8.67 -6.9 8.34 -12 8 C-12 7.67 -12 7.34 -12 7 C-7.71 7 -3.42 7 1 7 C0.67 4.69 0.34 2.38 0 0 Z " fill="#243339" transform="translate(736,714)"/>
<path d="M0 0 C0.33 0.99 0.66 1.98 1 3 C0.54625 3.4125 0.0925 3.825 -0.375 4.25 C-2.0880403 5.90196931 -2.0880403 5.90196931 -2.875 8 C-4.38454453 10.68363472 -6.31920874 11.58905723 -9 13 C-7.50923566 9.7173068 -5.61379679 7.06922559 -3.375 4.25 C-2.74335937 3.45078125 -2.11171875 2.6515625 -1.4609375 1.828125 C-0.97882812 1.22484375 -0.49671875 0.6215625 0 0 Z " fill="#25444C" transform="translate(801,470)"/>
<path d="M0 0 C0 3 0 3 -2.3125 5.625 C-5 8 -5 8 -8 9 C-8.66 8.34 -9.32 7.68 -10 7 C-6.7 4.69 -3.4 2.38 0 0 Z " fill="#2A3B42" transform="translate(610,337)"/>
<path d="M0 0 C0 0.33 0 0.66 0 1 C-0.93972656 1.09087891 -0.93972656 1.09087891 -1.8984375 1.18359375 C-2.71570313 1.26738281 -3.53296875 1.35117188 -4.375 1.4375 C-5.18710937 1.51871094 -5.99921875 1.59992188 -6.8359375 1.68359375 C-9.04272805 1.89090114 -9.04272805 1.89090114 -11 3 C-12.71233688 2.9129796 -14.42175406 2.75902838 -16.125 2.5625 C-17.03507812 2.46066406 -17.94515625 2.35882813 -18.8828125 2.25390625 C-19.58148438 2.17011719 -20.28015625 2.08632812 -21 2 C-21 1.67 -21 1.34 -21 1 C-14.03220597 -0.32719886 -7.07011089 -0.08825381 0 0 Z " fill="#18282F" transform="translate(496,234)"/>
<path d="M0 0 C0 4.3417799 -2.21168144 6.79303871 -5 10 C-7.3125 11.4375 -7.3125 11.4375 -9 12 C-7.55575365 8.76138697 -5.74227753 6.38030837 -3.375 3.75 C-2.74335937 3.04359375 -2.11171875 2.3371875 -1.4609375 1.609375 C-0.97882812 1.07828125 -0.49671875 0.5471875 0 0 Z " fill="#24343C" transform="translate(629,713)"/>
<path d="M0 0 C0.66 0 1.32 0 2 0 C2.61875 1.36125 2.61875 1.36125 3.25 2.75 C4.89050718 5.79665618 6.44718361 7.71126806 9 10 C4.40693504 8.5140084 1.56430755 6.14985318 -2 3 C-1.34 2.67 -0.68 2.34 0 2 C0 1.34 0 0.68 0 0 Z " fill="#28383E" transform="translate(300,574)"/>
<path d="M0 0 C0.99 0.33 1.98 0.66 3 1 C2.67 5.29 2.34 9.58 2 14 C0.06604999 10.13209997 -0.23289353 8.8499541 -0.125 4.75 C-0.09792969 3.41195313 -0.09792969 3.41195313 -0.0703125 2.046875 C-0.04710937 1.37140625 -0.02390625 0.6959375 0 0 Z " fill="#44545D" transform="translate(529,376)"/>
<path d="M0 0 C0.66 0.33 1.32 0.66 2 1 C1.67 2.32 1.34 3.64 1 5 C-1.98241547 5.77321882 -4.97580475 6.41196203 -8 7 C-5.42215154 4.35247996 -3.08351902 2.05567935 0 0 Z " fill="#29383F" transform="translate(562,370)"/>
<path d="M0 0 C1 4 1 4 1 6 C0.01 6 -0.98 6 -2 6 C-2.33 6.66 -2.66 7.32 -3 8 C-4.32 7.67 -5.64 7.34 -7 7 C-4.69 4.69 -2.38 2.38 0 0 Z " fill="#28373F" transform="translate(254,351)"/>
<path d="M0 0 C0.33 1.32 0.66 2.64 1 4 C0.278125 4.226875 -0.44375 4.45375 -1.1875 4.6875 C-4.53209313 6.24831013 -6.51603959 8.3031287 -9 11 C-9.66 10.67 -10.32 10.34 -11 10 C-3.70159453 2.51708428 -3.70159453 2.51708428 0 0 Z " fill="#7AACB9" transform="translate(295,345)"/>
<path d="M0 0 C0 1.32 0 2.64 0 4 C-0.66 4 -1.32 4 -2 4 C-2 4.66 -2 5.32 -2 6 C-3.32 5.34 -4.64 4.68 -6 4 C-6 3.01 -6 2.02 -6 1 C-3 0 -3 0 0 0 Z " fill="#2E434B" transform="translate(467,344)"/>
<path d="M0 0 C-1.65 0.33 -3.3 0.66 -5 1 C-5.33 1.99 -5.66 2.98 -6 4 C-8.64 4.33 -11.28 4.66 -14 5 C-11.85073619 2.60894402 -10.00963087 1.36721146 -7 0.25 C-5.9790625 -0.14445312 -5.9790625 -0.14445312 -4.9375 -0.546875 C-3 -1 -3 -1 0 0 Z " fill="#7BA6B6" transform="translate(446,272)"/>
<path d="M0 0 C1.09658936 3.28976808 0.79953138 4.71303767 0 8 C0.99 8.33 1.98 8.66 3 9 C3 9.66 3 10.32 3 11 C1.02 11 -0.96 11 -3 11 C-3.33 10.34 -3.66 9.68 -4 9 C-3.22265625 6.8359375 -3.22265625 6.8359375 -2.0625 4.375 C-1.68222656 3.55773437 -1.30195313 2.74046875 -0.91015625 1.8984375 C-0.60980469 1.27195312 -0.30945313 0.64546875 0 0 Z " fill="#78A5B5" transform="translate(406,548)"/>
<path d="M0 0 C0 2.33333333 0 4.66666667 0 7 C-1.175625 7.4640625 -1.175625 7.4640625 -2.375 7.9375 C-4.92330128 8.92875038 -4.92330128 8.92875038 -7 10 C-5.33248852 6.05860922 -2.77289351 3.2107188 0 0 Z " fill="#25353D" transform="translate(214,395)"/>
<path d="M0 0 C0 3 0 3 -2 6 C-2.33 6.99 -2.66 7.98 -3 9 C-4.32 9 -5.64 9 -7 9 C-5.44499019 5.18315774 -2.96404505 2.80804268 0 0 Z " fill="#73A6AB" transform="translate(673,574)"/>
<path d="M0 0 C1.27609323 0.90933009 2.54565553 1.82782853 3.8125 2.75 C4.87404297 3.51570312 4.87404297 3.51570312 5.95703125 4.296875 C8.02977691 6.02482358 9.47375854 7.78526476 11 10 C7.40734291 8.34185057 4.15849558 6.38641889 1 4 C0.32421875 1.8671875 0.32421875 1.8671875 0 0 Z " fill="#284551" transform="translate(378,576)"/>
<path d="M0 0 C0.99 0 1.98 0 3 0 C1.50902342 3.7952131 -0.75700849 5.61042731 -4 8 C-4.66 7.67 -5.32 7.34 -6 7 C-4 4 -4 4 -1 3 C-0.67 2.01 -0.34 1.02 0 0 Z " fill="#25333A" transform="translate(483,743)"/>
<path d="M0 0 C4.95 0 9.9 0 15 0 C15 0.99 15 1.98 15 3 C13.7934375 2.7834375 13.7934375 2.7834375 12.5625 2.5625 C8.38640519 1.90311661 4.20401941 1.43908647 0 1 C0 0.67 0 0.34 0 0 Z " fill="#40515A" transform="translate(647,698)"/>
<path d="M0 0 C1.32 0.66 2.64 1.32 4 2 C2.38007835 2.86375896 0.75388139 3.71575854 -0.875 4.5625 C-2.23238281 5.27599609 -2.23238281 5.27599609 -3.6171875 6.00390625 C-4.40351562 6.33261719 -5.18984375 6.66132812 -6 7 C-6.66 6.67 -7.32 6.34 -8 6 C-5.36 4.02 -2.72 2.04 0 0 Z " fill="#719CA1" transform="translate(651,596)"/>
<path d="M0 0 C1.65 0 3.3 0 5 0 C3.4169423 4.2742558 0.49431596 6.26531794 -3 9 C-2.690625 8.443125 -2.38125 7.88625 -2.0625 7.3125 C-0.94238179 4.87459567 -0.43962636 2.63775814 0 0 Z " fill="#29444E" transform="translate(668,573)"/>
<path d="M0 0 C2.475 0.495 2.475 0.495 5 1 C4.79375 1.598125 4.5875 2.19625 4.375 2.8125 C3.69328085 5.28450846 3.69328085 5.28450846 6 8 C5.67 8.99 5.34 9.98 5 11 C4.16151196 9.54462432 3.32936066 8.08559627 2.5 6.625 C1.80390625 5.40683594 1.80390625 5.40683594 1.09375 4.1640625 C0 2 0 2 0 0 Z " fill="#77A7B7" transform="translate(344,528)"/>
<path d="M0 0 C3 3 3 3 3.1875 6.6875 C3.125625 7.780625 3.06375 8.87375 3 10 C2.01 10.33 1.02 10.66 0 11 C0 7.37 0 3.74 0 0 Z " fill="#3E5057" transform="translate(500,504)"/>
<path d="M0 0 C0.33 0 0.66 0 1 0 C1.66 4.29 2.32 8.58 3 13 C1.35 13.33 -0.3 13.66 -2 14 C-1.67 13.34 -1.34 12.68 -1 12 C-0.77141886 9.9625237 -0.58975722 7.91959697 -0.4375 5.875 C-0.35371094 4.77929688 -0.26992188 3.68359375 -0.18359375 2.5546875 C-0.12300781 1.71164062 -0.06242188 0.86859375 0 0 Z " fill="#1E2F36" transform="translate(522,386)"/>
<path d="M0 0 C0.66 0.33 1.32 0.66 2 1 C1.13375 2.0209375 1.13375 2.0209375 0.25 3.0625 C-2.19835514 6.25896365 -4.06450515 9.47463438 -6 13 C-6.33 12.01 -6.66 11.02 -7 10 C-5.56640625 7.51953125 -5.56640625 7.51953125 -3.5625 4.8125 C-2.90378906 3.91144531 -2.24507813 3.01039063 -1.56640625 2.08203125 C-1.04949219 1.39496094 -0.53257812 0.70789063 0 0 Z " fill="#27404D" transform="translate(341,328)"/>
<path d="M0 0 C0 3 0 3 -1.75 5.04296875 C-2.4925 5.75066406 -3.235 6.45835937 -4 7.1875 C-4.7425 7.90292969 -5.485 8.61835938 -6.25 9.35546875 C-6.8275 9.89816406 -7.405 10.44085938 -8 11 C-8.33 9.68 -8.66 8.36 -9 7 C-7.88625 6.38125 -7.88625 6.38125 -6.75 5.75 C-4.09828315 4.06254382 -2.13325986 2.29127911 0 0 Z " fill="#25414E" transform="translate(374,314)"/>
<path d="M0 0 C1.32 0.66 2.64 1.32 4 2 C3.34 3.32 2.68 4.64 2 6 C1.34 6 0.68 6 0 6 C0 5.34 0 4.68 0 4 C-0.66 4 -1.32 4 -2 4 C-2 3.34 -2 2.68 -2 2 C-1.34 2 -0.68 2 0 2 C0 1.34 0 0.68 0 0 Z " fill="#37454B" transform="translate(685,441)"/>
<path d="M0 0 C0.33 0.66 0.66 1.32 1 2 C-0.01553817 5.0466145 -1.20762558 7.31143836 -3 10 C-3.99 10 -4.98 10 -6 10 C-4.6302836 6.00499382 -2.74277578 3.19990508 0 0 Z " fill="#27363D" transform="translate(192,424)"/>
<path d="M0 0 C1.83935859 3.10391762 2.55472439 5.39429145 2 9 C0 10.8125 0 10.8125 -2 12 C-1.85831863 10.56208484 -1.71148957 9.1246763 -1.5625 7.6875 C-1.48128906 6.88699219 -1.40007812 6.08648437 -1.31640625 5.26171875 C-1 3 -1 3 0 0 Z " fill="#75A5B4" transform="translate(352,303)"/>
<path d="M0 0 C0.66 0.33 1.32 0.66 2 1 C-1.08290155 5.22797927 -1.08290155 5.22797927 -3 7 C-5.8125 7.375 -5.8125 7.375 -8 7 C-5.42215154 4.35247996 -3.08351902 2.05567935 0 0 Z " fill="#26343B" transform="translate(322,294)"/>
<path d="M0 0 C4.59306496 1.4859916 7.43569245 3.85014682 11 7 C10.01 7.33 9.02 7.66 8 8 C5.94272868 6.4045651 3.94125344 4.73473712 2 3 C1.34 2.67 0.68 2.34 0 2 C0 1.34 0 0.68 0 0 Z " fill="#2A4451" transform="translate(390,587)"/>
<path d="M0 0 C2.64 0 5.28 0 8 0 C8.33 0.99 8.66 1.98 9 3 C8.34 3 7.68 3 7 3 C7 5.31 7 7.62 7 10 C6.67 10 6.34 10 6 10 C6 7.03 6 4.06 6 1 C4.02 1 2.04 1 0 1 C0 0.67 0 0.34 0 0 Z " fill="#1A2B34" transform="translate(490,352)"/>
<path d="M0 0 C0.33 0.66 0.66 1.32 1 2 C-5.0546875 2.9765625 -5.0546875 2.9765625 -7 3 C-7.66 2.34 -8.32 1.68 -9 1 C-6.04335481 -0.4783226 -3.25770263 -0.06032783 0 0 Z " fill="#304047" transform="translate(455,239)"/>
<path d="M0 0 C4.23090117 0.30220723 6.25186236 3.02285089 9 6 C5.08788267 4.84414715 2.1254959 3.64465038 -1 1 C-0.67 0.67 -0.34 0.34 0 0 Z " fill="#769FA7" transform="translate(371,595)"/>
<path d="M0 0 C3.29696105 1.09898702 4.04670589 1.94597387 6.1875 4.5625 C6.71730469 5.20316406 7.24710937 5.84382812 7.79296875 6.50390625 C8.19128906 6.99761719 8.58960938 7.49132812 9 8 C8.67 8.66 8.34 9.32 8 10 C6.66070495 8.71451591 5.32871357 7.42141845 4 6.125 C2.88625 5.04605469 2.88625 5.04605469 1.75 3.9453125 C0 2 0 2 0 0 Z " fill="#284453" transform="translate(360,581)"/>
<path d="M0 0 C1.32 0.66 2.64 1.32 4 2 C2.25 6.875 2.25 6.875 0 8 C-0.33 6.68 -0.66 5.36 -1 4 C-0.01 4 0.98 4 2 4 C2 3.34 2 2.68 2 2 C1.01 1.67 0.02 1.34 -1 1 C-0.67 0.67 -0.34 0.34 0 0 Z " fill="#26363D" transform="translate(617,332)"/>
<path d="M0 0 C1.65 0.33 3.3 0.66 5 1 C3.68 2.32 2.36 3.64 1 5 C0.01 4.67 -0.98 4.34 -2 4 C-1.34 2.68 -0.68 1.36 0 0 Z " fill="#2C3C42" transform="translate(710,585)"/>
<path d="M0 0 C0.33 2.31 0.66 4.62 1 7 C0.01 7.66 -0.98 8.32 -2 9 C-3.35439668 6.29120665 -3.06501451 3.99066732 -3 1 C-1 0 -1 0 0 0 Z " fill="#4A5961" transform="translate(493,402)"/>
<path d="M0 0 C0.99 0 1.98 0 3 0 C4 3 4 3 3 6 C1.68 5.67 0.36 5.34 -1 5 C-0.67 3.35 -0.34 1.7 0 0 Z " fill="#2C4048" transform="translate(390,257)"/>
<path d="M0 0 C0 3 0 3 -2 5.1875 C-2.66 5.785625 -3.32 6.38375 -4 7 C-5.125 3.25 -5.125 3.25 -4 1 C-1.9375 0.375 -1.9375 0.375 0 0 Z " fill="#28373E" transform="translate(814,488)"/>
<path d="M0 0 C2.2477975 2.05233685 3.0022242 3.00667261 4 6 C3.34 6.66 2.68 7.32 2 8 C2 7.01 2 6.02 2 5 C1.01 5 0.02 5 -1 5 C-0.67 3.35 -0.34 1.7 0 0 Z " fill="#2F3F45" transform="translate(419,481)"/>
<path d="M0 0 C-1.28813342 0.83878455 -2.58063256 1.67086783 -3.875 2.5 C-4.59429687 2.9640625 -5.31359375 3.428125 -6.0546875 3.90625 C-8 5 -8 5 -10 5 C-10 4.01 -10 3.02 -10 2 C-8.71211992 1.46987262 -7.41953322 0.9511671 -6.125 0.4375 C-5.40570313 0.14746094 -4.68640625 -0.14257812 -3.9453125 -0.44140625 C-2 -1 -2 -1 0 0 Z " fill="#243238" transform="translate(463,363)"/>
<path d="M0 0 C0.33 0.66 0.66 1.32 1 2 C-0.98 4.31 -2.96 6.62 -5 9 C-5 4.61031544 -2.87194899 3.23094261 0 0 Z " fill="#7BA9B6" transform="translate(218,428)"/>
</svg>
